<?xml version="1.0" encoding="utf-8"?>
<!-- Generator: Adobe Illustrator 16.0.0, SVG Export Plug-In . SVG Version: 6.00 Build 0)  -->
<!DOCTYPE svg PUBLIC "-//W3C//DTD SVG 1.1//EN" "http://www.w3.org/Graphics/SVG/1.1/DTD/svg11.dtd">
<svg version="1.1" id="Layer_1" xmlns="http://www.w3.org/2000/svg" xmlns:xlink="http://www.w3.org/1999/xlink" x="0px" y="0px"
	 width="526.93px" height="123.918px" viewBox="0 0 526.93 123.918" enable-background="new 0 0 526.93 123.918"
	 xml:space="preserve">
<g>
	<polygon fill="#0F2A4B" points="0,0 0,123.918 185.866,0 	"/>
</g>
<g>
	<path fill="#0F2A4B" d="M209.087,46.443V11.577h15.459c3.107,0,5.471,0.313,7.088,0.939c1.617,0.626,2.909,1.732,3.877,3.318
		c0.967,1.585,1.45,3.338,1.45,5.256c0,2.474-0.801,4.559-2.401,6.255c-1.603,1.697-4.075,2.775-7.421,3.234
		c1.221,0.587,2.148,1.166,2.782,1.736c1.348,1.237,2.624,2.783,3.83,4.637l6.064,9.49h-5.804l-4.613-7.254
		c-1.349-2.094-2.458-3.694-3.33-4.804s-1.653-1.887-2.343-2.331c-0.689-0.444-1.392-0.753-2.104-0.927
		c-0.523-0.111-1.38-0.167-2.568-0.167h-5.352v15.483H209.087z M213.701,26.965h9.918c2.108,0,3.758-0.218,4.946-0.654
		c1.189-0.436,2.093-1.133,2.712-2.093c0.618-0.959,0.927-2.001,0.927-3.128c0-1.648-0.599-3.004-1.795-4.067
		c-1.197-1.062-3.089-1.593-5.673-1.593h-11.035V26.965z"/>
	<path fill="#0F2A4B" d="M242.051,33.814c0-4.677,1.3-8.142,3.9-10.394c2.172-1.871,4.82-2.807,7.944-2.807
		c3.472,0,6.31,1.138,8.514,3.413c2.204,2.275,3.307,5.419,3.307,9.43c0,3.25-0.488,5.807-1.463,7.67
		c-0.976,1.863-2.395,3.31-4.258,4.34c-1.863,1.031-3.896,1.547-6.1,1.547c-3.536,0-6.395-1.134-8.574-3.401
		C243.141,41.346,242.051,38.08,242.051,33.814z M246.451,33.814c0,3.234,0.705,5.656,2.116,7.266s3.188,2.414,5.328,2.414
		c2.124,0,3.892-0.809,5.304-2.426c1.41-1.617,2.116-4.082,2.116-7.397c0-3.123-0.71-5.49-2.129-7.099s-3.183-2.414-5.291-2.414
		c-2.141,0-3.917,0.801-5.328,2.402S246.451,30.58,246.451,33.814z"/>
	<path fill="#0F2A4B" d="M288.024,38.31l4.424,0.547c-0.697,2.585-1.989,4.59-3.876,6.018c-1.888,1.427-4.298,2.141-7.23,2.141
		c-3.694,0-6.624-1.138-8.788-3.413s-3.246-5.467-3.246-9.573c0-4.249,1.094-7.547,3.281-9.894c2.188-2.346,5.026-3.52,8.515-3.52
		c3.378,0,6.137,1.15,8.277,3.449c2.141,2.299,3.211,5.534,3.211,9.704c0,0.254-0.009,0.634-0.024,1.142H273.73
		c0.159,2.775,0.943,4.899,2.355,6.374c1.41,1.475,3.171,2.212,5.279,2.212c1.57,0,2.909-0.412,4.02-1.236
		C286.494,41.434,287.375,40.117,288.024,38.31z M273.969,31.388h14.104c-0.19-2.125-0.729-3.718-1.617-4.78
		c-1.363-1.649-3.132-2.474-5.304-2.474c-1.966,0-3.619,0.658-4.959,1.974C274.853,27.425,274.111,29.185,273.969,31.388z"/>
	<path fill="#0F2A4B" d="M297.847,16.5v-4.923h4.281V16.5H297.847z M297.847,46.443V21.185h4.281v25.258H297.847z"/>
	<path fill="#0F2A4B" d="M315.661,46.443l-9.608-25.258h4.52l5.422,15.126c0.587,1.634,1.126,3.33,1.617,5.09
		c0.381-1.332,0.912-2.934,1.594-4.804l5.613-15.412h4.399l-9.561,25.258H315.661z"/>
	<path fill="#0F2A4B" d="M350.289,38.31l4.424,0.547c-0.697,2.585-1.989,4.59-3.876,6.018c-1.888,1.427-4.298,2.141-7.23,2.141
		c-3.694,0-6.624-1.138-8.788-3.413s-3.246-5.467-3.246-9.573c0-4.249,1.094-7.547,3.281-9.894c2.188-2.346,5.026-3.52,8.515-3.52
		c3.378,0,6.137,1.15,8.277,3.449c2.141,2.299,3.211,5.534,3.211,9.704c0,0.254-0.009,0.634-0.024,1.142h-18.837
		c0.159,2.775,0.943,4.899,2.355,6.374c1.41,1.475,3.171,2.212,5.279,2.212c1.57,0,2.909-0.412,4.02-1.236
		C348.759,41.434,349.64,40.117,350.289,38.31z M336.233,31.388h14.104c-0.19-2.125-0.729-3.718-1.617-4.78
		c-1.363-1.649-3.132-2.474-5.304-2.474c-1.966,0-3.619,0.658-4.959,1.974C337.117,27.425,336.376,29.185,336.233,31.388z"/>
	<path fill="#0F2A4B" d="M360.041,46.443V21.185h3.854v3.829c0.982-1.792,1.891-2.973,2.723-3.543
		c0.833-0.571,1.748-0.856,2.747-0.856c1.442,0,2.909,0.46,4.4,1.379l-1.475,3.972c-1.047-0.619-2.094-0.928-3.14-0.928
		c-0.936,0-1.776,0.282-2.521,0.844c-0.745,0.563-1.276,1.344-1.593,2.343c-0.477,1.522-0.714,3.187-0.714,4.995v13.224H360.041z"/>
	<path fill="#0F2A4B" d="M393.6,38.31l4.424,0.547c-0.697,2.585-1.99,4.59-3.877,6.018c-1.887,1.427-4.297,2.141-7.23,2.141
		c-3.693,0-6.623-1.138-8.787-3.413c-2.165-2.275-3.247-5.467-3.247-9.573c0-4.249,1.094-7.547,3.282-9.894
		c2.188-2.346,5.025-3.52,8.514-3.52c3.379,0,6.137,1.15,8.277,3.449c2.141,2.299,3.211,5.534,3.211,9.704
		c0,0.254-0.008,0.634-0.023,1.142h-18.838c0.16,2.775,0.943,4.899,2.355,6.374c1.41,1.475,3.172,2.212,5.279,2.212
		c1.57,0,2.91-0.412,4.02-1.236S392.95,40.117,393.6,38.31z M379.543,31.388h14.104c-0.189-2.125-0.729-3.718-1.617-4.78
		c-1.363-1.649-3.131-2.474-5.303-2.474c-1.967,0-3.619,0.658-4.959,1.974C380.428,27.425,379.686,29.185,379.543,31.388z"/>
	<path fill="#0F2A4B" d="M403.399,46.443V21.185h3.852v3.591c1.855-2.774,4.535-4.162,8.039-4.162c1.523,0,2.922,0.273,4.199,0.821
		c1.275,0.547,2.23,1.265,2.865,2.152c0.633,0.888,1.078,1.942,1.332,3.163c0.158,0.793,0.238,2.18,0.238,4.162v15.531h-4.281
		V31.079c0-1.744-0.168-3.048-0.5-3.912c-0.334-0.864-0.924-1.554-1.771-2.069c-0.85-0.515-1.844-0.773-2.984-0.773
		c-1.824,0-3.398,0.579-4.723,1.736s-1.984,3.354-1.984,6.588v13.794H403.399z"/>
	<path fill="#0F2A4B" d="M430.512,16.5v-4.923h4.281V16.5H430.512z M430.512,46.443V21.185h4.281v25.258H430.512z"/>
	<path fill="#0F2A4B" d="M440.524,48.536l4.162,0.618c0.176,1.285,0.658,2.22,1.451,2.807c1.063,0.793,2.514,1.189,4.354,1.189
		c1.98,0,3.512-0.396,4.59-1.189s1.807-1.902,2.188-3.329c0.223-0.873,0.324-2.703,0.309-5.494
		c-1.871,2.204-4.201,3.306-6.992,3.306c-3.473,0-6.16-1.252-8.063-3.758c-1.902-2.505-2.854-5.51-2.854-9.014
		c0-2.41,0.436-4.633,1.309-6.671c0.871-2.038,2.137-3.611,3.793-4.721s3.604-1.665,5.838-1.665c2.982,0,5.439,1.205,7.373,3.615
		v-3.044h3.949v21.833c0,3.932-0.4,6.719-1.201,8.36c-0.801,1.641-2.07,2.937-3.807,3.888c-1.734,0.952-3.871,1.428-6.408,1.428
		c-3.014,0-5.447-0.678-7.303-2.034C441.358,53.305,440.461,51.264,440.524,48.536z M444.069,33.362
		c0,3.314,0.656,5.732,1.973,7.254c1.316,1.522,2.965,2.283,4.947,2.283c1.967,0,3.615-0.757,4.947-2.271
		c1.332-1.514,1.998-3.888,1.998-7.123c0-3.092-0.686-5.422-2.057-6.992c-1.373-1.57-3.025-2.354-4.959-2.354
		c-1.902,0-3.52,0.773-4.852,2.319S444.069,30.318,444.069,33.362z"/>
	<path fill="#0F2A4B" d="M468.422,16.5v-4.923h4.281V16.5H468.422z M468.422,46.443V21.185h4.281v25.258H468.422z"/>
	<path fill="#0F2A4B" d="M479.221,46.443V21.185h3.852v3.591c1.855-2.774,4.535-4.162,8.039-4.162c1.523,0,2.922,0.273,4.199,0.821
		c1.275,0.547,2.23,1.265,2.865,2.152c0.633,0.888,1.078,1.942,1.332,3.163c0.158,0.793,0.238,2.18,0.238,4.162v15.531h-4.281
		V31.079c0-1.744-0.168-3.048-0.5-3.912c-0.334-0.864-0.924-1.554-1.771-2.069c-0.85-0.515-1.844-0.773-2.984-0.773
		c-1.824,0-3.398,0.579-4.723,1.736s-1.984,3.354-1.984,6.588v13.794H479.221z"/>
	<path fill="#0F2A4B" d="M505.526,48.536l4.162,0.618c0.174,1.285,0.658,2.22,1.451,2.807c1.061,0.793,2.512,1.189,4.352,1.189
		c1.982,0,3.512-0.396,4.59-1.189s1.809-1.902,2.189-3.329c0.221-0.873,0.324-2.703,0.309-5.494
		c-1.871,2.204-4.203,3.306-6.992,3.306c-3.473,0-6.16-1.252-8.063-3.758c-1.902-2.505-2.855-5.51-2.855-9.014
		c0-2.41,0.438-4.633,1.309-6.671c0.873-2.038,2.137-3.611,3.793-4.721c1.658-1.11,3.604-1.665,5.84-1.665
		c2.98,0,5.438,1.205,7.373,3.615v-3.044h3.947v21.833c0,3.932-0.4,6.719-1.201,8.36c-0.801,1.641-2.068,2.937-3.805,3.888
		c-1.736,0.952-3.873,1.428-6.41,1.428c-3.012,0-5.445-0.678-7.301-2.034C506.358,53.305,505.461,51.264,505.526,48.536z
		 M509.069,33.362c0,3.314,0.658,5.732,1.975,7.254c1.316,1.522,2.965,2.283,4.947,2.283c1.965,0,3.615-0.757,4.947-2.271
		c1.332-1.514,1.998-3.888,1.998-7.123c0-3.092-0.688-5.422-2.059-6.992s-3.023-2.354-4.959-2.354c-1.902,0-3.52,0.773-4.852,2.319
		S509.069,30.318,509.069,33.362z"/>
</g>
<g>
	<path fill="#0F2A4B" d="M208.825,115.453V80.586h4.614v30.753h17.172v4.114H208.825z"/>
	<path fill="#0F2A4B" d="M252.849,107.319l4.424,0.547c-0.697,2.585-1.989,4.59-3.876,6.018c-1.888,1.427-4.298,2.141-7.23,2.141
		c-3.694,0-6.624-1.138-8.788-3.413s-3.246-5.467-3.246-9.573c0-4.249,1.094-7.547,3.281-9.894c2.188-2.347,5.026-3.521,8.515-3.521
		c3.378,0,6.137,1.15,8.277,3.449s3.211,5.533,3.211,9.703c0,0.254-0.009,0.635-0.024,1.142h-18.837
		c0.159,2.775,0.943,4.899,2.355,6.374c1.41,1.475,3.171,2.212,5.279,2.212c1.57,0,2.909-0.412,4.02-1.236
		C251.318,110.443,252.199,109.127,252.849,107.319z M238.793,100.398h14.104c-0.19-2.125-0.729-3.719-1.617-4.781
		c-1.363-1.648-3.132-2.473-5.304-2.473c-1.966,0-3.619,0.658-4.959,1.974C239.677,96.435,238.936,98.194,238.793,100.398z"/>
	<path fill="#0F2A4B" d="M279.938,107.319l4.424,0.547c-0.697,2.585-1.989,4.59-3.876,6.018c-1.888,1.427-4.298,2.141-7.23,2.141
		c-3.694,0-6.624-1.138-8.788-3.413s-3.246-5.467-3.246-9.573c0-4.249,1.094-7.547,3.281-9.894c2.188-2.347,5.026-3.521,8.515-3.521
		c3.378,0,6.137,1.15,8.277,3.449s3.211,5.533,3.211,9.703c0,0.254-0.009,0.635-0.024,1.142h-18.837
		c0.159,2.775,0.943,4.899,2.355,6.374c1.41,1.475,3.171,2.212,5.279,2.212c1.57,0,2.909-0.412,4.02-1.236
		C278.407,110.443,279.288,109.127,279.938,107.319z M265.882,100.398h14.104c-0.19-2.125-0.729-3.719-1.617-4.781
		c-1.363-1.648-3.132-2.473-5.304-2.473c-1.966,0-3.619,0.658-4.959,1.974C266.766,96.435,266.024,98.194,265.882,100.398z"/>
	<path fill="#0F2A4B" d="M289.689,115.453V90.195h3.854v3.829c0.982-1.792,1.891-2.974,2.723-3.544
		c0.833-0.571,1.748-0.856,2.747-0.856c1.442,0,2.909,0.46,4.4,1.38l-1.475,3.972c-1.047-0.618-2.094-0.928-3.14-0.928
		c-0.936,0-1.776,0.282-2.521,0.845s-1.276,1.344-1.593,2.343c-0.477,1.521-0.714,3.187-0.714,4.994v13.224H289.689z"/>
	<path fill="#0F2A4B" d="M322.345,115.453v-3.187c-1.602,2.505-3.956,3.758-7.063,3.758c-2.014,0-3.865-0.556-5.554-1.665
		c-1.688-1.11-2.997-2.66-3.924-4.65c-0.928-1.989-1.392-4.276-1.392-6.861c0-2.521,0.42-4.808,1.261-6.861
		c0.84-2.054,2.101-3.627,3.781-4.721c1.681-1.095,3.56-1.642,5.637-1.642c1.522,0,2.878,0.321,4.067,0.964
		c1.188,0.642,2.155,1.479,2.901,2.509V80.586h4.257v34.867H322.345z M308.812,102.848c0,3.234,0.682,5.653,2.046,7.254
		c1.363,1.602,2.973,2.402,4.828,2.402c1.87,0,3.46-0.765,4.769-2.295c1.308-1.53,1.962-3.865,1.962-7.004
		c0-3.457-0.666-5.994-1.998-7.611s-2.973-2.426-4.923-2.426c-1.902,0-3.492,0.777-4.769,2.331S308.812,99.503,308.812,102.848z"/>
	<path fill="#0F2A4B" d="M349.528,112.338c-1.585,1.348-3.111,2.299-4.578,2.854s-3.04,0.833-4.721,0.833
		c-2.775,0-4.908-0.679-6.397-2.034c-1.491-1.355-2.236-3.088-2.236-5.196c0-1.237,0.281-2.366,0.845-3.39
		c0.563-1.022,1.3-1.843,2.212-2.461c0.911-0.619,1.938-1.086,3.08-1.403c0.84-0.222,2.108-0.437,3.805-0.643
		c3.457-0.412,6.002-0.903,7.635-1.475c0.016-0.586,0.023-0.959,0.023-1.117c0-1.744-0.404-2.974-1.213-3.687
		c-1.094-0.968-2.719-1.451-4.875-1.451c-2.014,0-3.501,0.353-4.46,1.059c-0.959,0.705-1.669,1.954-2.128,3.746l-4.187-0.571
		c0.381-1.792,1.007-3.238,1.879-4.341c0.872-1.102,2.133-1.95,3.782-2.545c1.648-0.594,3.559-0.892,5.731-0.892
		c2.156,0,3.908,0.254,5.256,0.761c1.348,0.508,2.339,1.146,2.974,1.915c0.634,0.77,1.077,1.74,1.331,2.913
		c0.144,0.729,0.215,2.046,0.215,3.948v5.708c0,3.98,0.091,6.497,0.273,7.552c0.182,1.055,0.543,2.065,1.082,3.032h-4.472
		C349.94,114.565,349.655,113.526,349.528,112.338z M349.172,102.776c-1.554,0.635-3.885,1.174-6.992,1.617
		c-1.76,0.254-3.005,0.539-3.734,0.856s-1.292,0.781-1.688,1.392s-0.595,1.288-0.595,2.033c0,1.142,0.432,2.093,1.297,2.854
		c0.863,0.761,2.128,1.142,3.793,1.142c1.649,0,3.116-0.361,4.4-1.083c1.284-0.721,2.228-1.708,2.83-2.961
		c0.46-0.967,0.689-2.394,0.689-4.28V102.776z"/>
	<path fill="#0F2A4B" d="M360.137,115.453V90.195h3.829v3.543c0.793-1.236,1.847-2.231,3.163-2.984s2.814-1.13,4.495-1.13
		c1.871,0,3.404,0.389,4.603,1.166c1.196,0.776,2.042,1.863,2.532,3.258c1.998-2.949,4.6-4.424,7.803-4.424
		c2.504,0,4.43,0.694,5.779,2.081c1.346,1.388,2.021,3.524,2.021,6.41v17.338h-4.258V99.542c0-1.713-0.139-2.945-0.416-3.698
		s-0.781-1.359-1.51-1.819c-0.73-0.46-1.586-0.69-2.57-0.69c-1.775,0-3.25,0.591-4.424,1.772c-1.172,1.182-1.76,3.072-1.76,5.672
		v14.675h-4.281V99.042c0-1.902-0.349-3.329-1.046-4.28c-0.698-0.951-1.84-1.428-3.425-1.428c-1.205,0-2.319,0.317-3.342,0.952
		c-1.022,0.634-1.764,1.562-2.224,2.782c-0.46,1.222-0.689,2.981-0.689,5.28v13.104H360.137z"/>
</g>
<g>
	<polygon fill="#0F2A4B" points="93.092,61.958 93.092,123.916 186.024,61.958 	"/>
</g>
</svg>
