<svg width="123" height="123" viewBox="0 0 123 123" fill="none" xmlns="http://www.w3.org/2000/svg">
<path d="M61.5 61.5C66.8216 61.5 72.0236 59.922 76.4483 56.9655C80.873 54.009 84.3217 49.8068 86.3581 44.8903C88.3946 39.9739 88.9274 34.5639 87.8893 29.3446C86.8511 24.1253 84.2885 19.3311 80.5256 15.5682C76.7627 11.8052 71.9685 9.24268 66.7491 8.20449C61.5298 7.16631 56.1199 7.69914 51.2034 9.73561C46.2869 11.7721 42.0848 15.2207 39.1283 19.6454C36.1718 24.0701 34.5938 29.2722 34.5938 34.5937C34.5938 41.7297 37.4285 48.5734 42.4744 53.6193C47.5203 58.6652 54.364 61.5 61.5 61.5ZM61.5 15.375C65.3011 15.375 69.0169 16.5022 72.1774 18.6139C75.3379 20.7257 77.8012 23.7273 79.2558 27.239C80.7104 30.7508 81.091 34.6151 80.3495 38.3431C79.6079 42.0712 77.7775 45.4957 75.0897 48.1835C72.4019 50.8712 68.9775 52.7017 65.2494 53.4432C61.5213 54.1848 57.6571 53.8042 54.1453 52.3496C50.6335 50.8949 47.632 48.4316 45.5202 45.2711C43.4084 42.1106 42.2812 38.3949 42.2812 34.5937C42.2812 29.4966 44.3061 24.6083 47.9103 21.004C51.5145 17.3998 56.4029 15.375 61.5 15.375Z" fill="#5B7FAC"/>
<path d="M65.3438 69.1875H57.6562C46.4426 69.1875 35.6882 73.6421 27.7589 81.5714C19.8296 89.5007 15.375 100.255 15.375 111.469C15.375 112.488 15.78 113.466 16.5008 114.187C17.2217 114.908 18.1993 115.312 19.2188 115.312H103.781C104.801 115.312 105.778 114.908 106.499 114.187C107.22 113.466 107.625 112.488 107.625 111.469C107.625 100.255 103.17 89.5007 95.2411 81.5714C87.3118 73.6421 76.5574 69.1875 65.3438 69.1875ZM23.2931 107.625C24.2383 99.1712 28.2651 91.362 34.604 85.6896C40.943 80.0171 49.1498 76.879 57.6562 76.875H65.3438C73.8502 76.879 82.057 80.0171 88.396 85.6896C94.7349 91.362 98.7617 99.1712 99.7069 107.625H23.2931Z" fill="#5B7FAC"/>
</svg>
