<svg width="123" height="123" viewBox="0 0 123 123" fill="none" xmlns="http://www.w3.org/2000/svg">
<path d="M61.5 84.5625C56.9387 84.5625 52.4798 83.2099 48.6872 80.6758C44.8946 78.1416 41.9386 74.5397 40.193 70.3256C38.4475 66.1115 37.9908 61.4744 38.8806 57.0007C39.7705 52.527 41.967 48.4177 45.1924 45.1923C48.4177 41.967 52.5271 39.7705 57.0007 38.8806C61.4744 37.9908 66.1115 38.4475 70.3256 40.193C74.5398 41.9386 78.1416 44.8945 80.6758 48.6872C83.2099 52.4798 84.5625 56.9387 84.5625 61.5C84.5625 67.6165 82.1327 73.4826 77.8077 77.8076C73.4826 82.1327 67.6166 84.5625 61.5 84.5625ZM61.5 46.125C58.4591 46.125 55.4865 47.0267 52.9581 48.7161C50.4297 50.4056 48.4591 52.8068 47.2954 55.6162C46.1317 58.4256 45.8272 61.517 46.4204 64.4995C47.0137 67.482 48.478 70.2215 50.6282 72.3718C52.7785 74.522 55.518 75.9863 58.5005 76.5796C61.483 77.1728 64.5743 76.8683 67.3838 75.7046C70.1932 74.5409 72.5944 72.5703 74.2838 70.0419C75.9733 67.5135 76.875 64.5409 76.875 61.5C76.875 57.4223 75.2551 53.5116 72.3718 50.6282C69.4884 47.7449 65.5777 46.125 61.5 46.125Z" fill="#5B7FAC"/>
<path d="M80.7188 119.156H42.2812C38.2035 119.156 34.2929 117.536 31.4095 114.653C28.5261 111.77 26.9063 107.859 26.9062 103.781V93.9797C26.9132 93.2164 27.1472 92.4725 27.5784 91.8427C28.0097 91.2129 28.6187 90.7258 29.3278 90.4434L43.3191 84.8315C43.7933 84.6213 44.3052 84.5092 44.824 84.502C45.3427 84.4949 45.8575 84.5928 46.3374 84.7899C46.8173 84.987 47.2523 85.2792 47.6162 85.649C47.9801 86.0187 48.2655 86.4582 48.455 86.9411C48.6445 87.4241 48.7344 87.9403 48.719 88.4589C48.7037 88.9775 48.5836 89.4875 48.3659 89.9584C48.1482 90.4293 47.8374 90.8513 47.4523 91.1989C47.0672 91.5464 46.6157 91.8125 46.125 91.9809L34.5938 96.5934V103.781C34.5938 105.82 35.4037 107.775 36.8454 109.217C38.2871 110.659 40.2424 111.469 42.2812 111.469H80.7188C82.7576 111.469 84.7129 110.659 86.1546 109.217C87.5963 107.775 88.4062 105.82 88.4062 103.781V96.5934L76.875 91.9809C75.9269 91.6037 75.1675 90.8654 74.7639 89.9283C74.3602 88.9912 74.3453 87.9321 74.7225 86.984C75.0997 86.036 75.838 85.2766 76.7751 84.8729C77.7122 84.4692 78.7713 84.4544 79.7194 84.8315L93.7106 90.4434C94.4198 90.7258 95.0288 91.2129 95.46 91.8427C95.8913 92.4725 96.1253 93.2164 96.1322 93.9797V103.781C96.1322 105.804 95.7332 107.806 94.9582 109.674C94.1831 111.542 93.0471 113.238 91.6154 114.667C90.1836 116.095 88.4841 117.227 86.6143 117.997C84.7445 118.767 82.7411 119.161 80.7188 119.156Z" fill="#5B7FAC"/>
<path d="M34.5938 42.2812C30.7926 42.2812 27.0769 41.1541 23.9164 39.0423C20.7559 36.9305 18.2926 33.929 16.8379 30.4172C15.3833 26.9054 15.0027 23.0412 15.7443 19.3131C16.4859 15.585 18.3163 12.1606 21.0041 9.47278C23.6918 6.78499 27.1163 4.95459 30.8444 4.21303C34.5724 3.47147 38.4367 3.85206 41.9485 5.30668C45.4602 6.76131 48.4618 9.22462 50.5736 12.3851C52.6853 15.5456 53.8125 19.2614 53.8125 23.0625C53.8125 25.5863 53.3154 28.0855 52.3496 30.4172C51.3837 32.7489 49.9681 34.8676 48.1835 36.6522C46.3988 38.4368 44.2802 39.8525 41.9485 40.8183C39.6167 41.7841 37.1176 42.2812 34.5938 42.2812ZM34.5938 11.5312C32.3131 11.5312 30.0836 12.2075 28.1873 13.4746C26.291 14.7417 24.813 16.5426 23.9403 18.6497C23.0675 20.7567 22.8391 23.0753 23.2841 25.3121C23.729 27.549 24.8273 29.6036 26.4399 31.2163C28.0526 32.829 30.1073 33.9272 32.3441 34.3722C34.581 34.8171 36.8995 34.5888 39.0066 33.716C41.1136 32.8432 42.9146 31.3652 44.1816 29.4689C45.4487 27.5726 46.125 25.3432 46.125 23.0625C46.125 20.0042 44.9101 17.0712 42.7476 14.9087C40.5851 12.7461 37.652 11.5312 34.5938 11.5312Z" fill="#5B7FAC"/>
<path d="M30.75 74.5303H19.2188C15.141 74.5303 11.2304 72.9104 8.34699 70.0271C5.46361 67.1437 3.84375 63.233 3.84375 59.1553V52.4287C3.84301 51.6589 4.07343 50.9066 4.50519 50.2693C4.93694 49.6319 5.55013 49.1389 6.26531 48.8541L18.5269 44.0494C19.4607 43.6787 20.5025 43.6884 21.4293 44.0763C22.356 44.4642 23.094 45.1996 23.4853 46.125C23.6725 46.5944 23.7654 47.0961 23.7585 47.6014C23.7516 48.1067 23.6452 48.6057 23.4453 49.0698C23.2453 49.5339 22.9559 49.9541 22.5934 50.3062C22.2309 50.6583 21.8025 50.9355 21.3328 51.1219L11.5313 55.0425V59.1553C11.5313 61.1942 12.3412 63.1495 13.7829 64.5912C15.2246 66.0329 17.1799 66.8428 19.2188 66.8428H30.75C31.7694 66.8428 32.7471 67.2478 33.4679 67.9686C34.1888 68.6895 34.5938 69.6671 34.5938 70.6866C34.5938 71.706 34.1888 72.6837 33.4679 73.4045C32.7471 74.1253 31.7694 74.5303 30.75 74.5303Z" fill="#5B7FAC"/>
<path d="M88.4063 42.2812C84.6052 42.2812 80.8894 41.1541 77.7289 39.0423C74.5684 36.9305 72.1051 33.929 70.6504 30.4172C69.1958 26.9054 68.8152 23.0412 69.5568 19.3131C70.2984 15.585 72.1288 12.1606 74.8166 9.47278C77.5043 6.78499 80.9288 4.95459 84.6569 4.21303C88.3849 3.47147 92.2492 3.85206 95.761 5.30668C99.2727 6.76131 102.274 9.22462 104.386 12.3851C106.498 15.5456 107.625 19.2614 107.625 23.0625C107.625 28.1596 105.6 33.048 101.996 36.6522C98.3918 40.2564 93.5034 42.2812 88.4063 42.2812ZM88.4063 11.5312C86.1256 11.5312 83.8961 12.2075 81.9998 13.4746C80.1035 14.7417 78.6255 16.5426 77.7528 18.6497C76.88 20.7567 76.6516 23.0753 77.0966 25.3121C77.5415 27.549 78.6398 29.6036 80.2524 31.2163C81.8651 32.829 83.9198 33.9272 86.1566 34.3722C88.3935 34.8171 90.712 34.5888 92.8191 33.716C94.9261 32.8432 96.7271 31.3652 97.9941 29.4689C99.2612 27.5726 99.9375 25.3432 99.9375 23.0625C99.9375 20.0042 98.7226 17.0712 96.5601 14.9087C94.3976 12.7461 91.4645 11.5312 88.4063 11.5312Z" fill="#5B7FAC"/>
<path d="M103.781 74.5303H92.25C91.2306 74.5303 90.2529 74.1253 89.5321 73.4045C88.8112 72.6837 88.4062 71.706 88.4062 70.6866C88.4062 69.6671 88.8112 68.6895 89.5321 67.9686C90.2529 67.2478 91.2306 66.8428 92.25 66.8428H103.781C105.82 66.8428 107.775 66.0329 109.217 64.5912C110.659 63.1495 111.469 61.1942 111.469 59.1553V55.0425L101.667 51.1987C101.197 51.0124 100.769 50.7352 100.407 50.383C100.044 50.0309 99.7547 49.6108 99.5547 49.1467C99.3548 48.6825 99.2484 48.1836 99.2415 47.6783C99.2346 47.173 99.3275 46.6713 99.5147 46.2019C99.884 45.2556 100.613 44.494 101.542 44.0835C102.471 43.6729 103.525 43.6468 104.473 44.0109L116.735 48.8156C117.45 49.1004 118.063 49.5935 118.495 50.2308C118.927 50.8682 119.157 51.6205 119.156 52.3903V59.1169C119.161 61.1392 118.767 63.1426 117.997 65.0124C117.227 66.8822 116.095 68.5817 114.667 70.0135C113.238 71.4453 111.542 72.5812 109.674 73.3563C107.806 74.1314 105.804 74.5303 103.781 74.5303Z" fill="#5B7FAC"/>
</svg>
